<svg xmlns="http://www.w3.org/2000/svg" width="198.43" height="340.16">
  <path fill="#FFF" d="M141.518 162.091a5.94 5.94 0 00-5.605-3.947 5.943 5.943 0 00-5.586 3.967H118.06v-7.935h7.935a1.982 1.982 0 001.983-1.982v-8.301a5.952 5.952 0 10-3.967.001v6.316h-5.951v-3.967a1.984 1.984 0 00-1.982-1.984h-3.969v-10.284c3.099-1.095 4.723-4.495 3.627-7.594s-4.495-4.723-7.594-3.627a5.95 5.95 0 000 11.221v10.284h-7.935v-31.668a1.984 1.984 0 00-1.983-1.984h-.001c-24.47 0-43.64 17.717-43.64 40.332 0 10.743 4.265 24.968 11.13 37.118 1.233 2.181 2.842 4.475 4.545 6.904 3.601 5.132 7.608 10.903 8.043 15.928a5.64 5.64 0 00-2.383 4.708 5.896 5.896 0 001.313 3.684 6.113 6.113 0 00-1.82 4.391 5.956 5.956 0 005.951 5.95h33.722a5.986 5.986 0 005.951-6.025v-.065a5.92 5.92 0 00-1.825-4.271 6.125 6.125 0 001.317-3.801 5.69 5.69 0 00-5.7-5.679c-.083 0-.167.003-.251.006h-14.368v-37.758h3.967v5.951a1.983 1.983 0 001.982 1.984h5.952v2.349a5.95 5.95 0 103.968 11.221 5.951 5.951 0 000-11.221v-4.333a1.983 1.983 0 00-1.983-1.982h-5.952v-3.968h7.936a1.982 1.982 0 001.982-1.983v-3.967h12.268a5.94 5.94 0 0011.19-3.989zm-15.525-25.767a1.983 1.983 0 11.001 3.967 1.983 1.983 0 01-.001-3.967zm-52.485 56.359c-1.646-2.348-3.202-4.563-4.339-6.578-6.45-11.415-10.618-25.219-10.618-35.167 0-19.781 16.399-35.407 37.689-36.322v13.857c-.527.04-1.064.087-1.64.158a1.985 1.985 0 00-1.701 1.559l-.604 2.875c-.498.119-.995.252-1.49.401l-1.977-2.205a1.98 1.98 0 00-2.255-.501 29.826 29.826 0 00-6.24 3.644 1.984 1.984 0 00-.691 2.202l.91 2.774a26.2 26.2 0 00-1.093 1.093l-2.771-.91a1.995 1.995 0 00-2.202.689 29.766 29.766 0 00-3.647 6.243 1.983 1.983 0 00.502 2.255l2.206 1.976c-.148.491-.281.981-.398 1.474l-3.084.616c-.928.185-1.596 1-1.596 1.945v6.764c0 .946.667 1.76 1.596 1.944l3.084.616c.117.492.25.983.398 1.474l-2.207 1.976a1.986 1.986 0 00-.501 2.255 29.766 29.766 0 003.647 6.243 1.988 1.988 0 002.202.689l2.771-.909c.354.373.719.739 1.093 1.092l-.91 2.771c-.265.806.013 1.69.689 2.202a29.759 29.759 0 006.242 3.647c.782.331 1.688.13 2.255-.502l1.977-2.204c.495.149.991.283 1.49.4l.603 2.873a1.985 1.985 0 001.701 1.562c.575.07 1.113.118 1.64.158v21.974H82.184c-.811-5.847-4.952-11.793-8.676-17.103zm6.863-34.54c.013 9.086 6.84 16.717 15.869 17.735v6.822l-.329-1.562a1.982 1.982 0 00-1.589-1.545 21.511 21.511 0 01-3.456-.933 1.982 1.982 0 00-2.148.545l-1.866 2.08a25.804 25.804 0 01-2.986-1.753l.861-2.62a1.986 1.986 0 00-.604-2.135 21.735 21.735 0 01-2.539-2.538 1.992 1.992 0 00-2.132-.6l-2.62.861a25.592 25.592 0 01-1.753-2.987l2.082-1.865a1.986 1.986 0 00.543-2.148 21.612 21.612 0 01-.932-3.456 1.983 1.983 0 00-1.564-1.592l-2.772-.554v-3.51l2.772-.554a1.982 1.982 0 001.564-1.592 21.56 21.56 0 01.932-3.458 1.984 1.984 0 00-.544-2.148l-2.081-1.864a26.008 26.008 0 011.753-2.986l2.621.862a1.995 1.995 0 002.132-.601 22.19 22.19 0 012.54-2.544 1.978 1.978 0 00.601-2.128l-.86-2.621a25.876 25.876 0 012.985-1.753l1.866 2.08a1.99 1.99 0 002.148.545 21.432 21.432 0 013.456-.932 1.983 1.983 0 001.589-1.544l.329-1.562v6.819c-9.028 1.02-15.855 8.651-15.868 17.736zm15.869-13.726v27.453c-7.582-1.085-12.847-8.111-11.762-15.692a13.865 13.865 0 0111.762-11.761zm20.828 79.255a1.985 1.985 0 01-1.984 1.983H81.362a2.02 2.02 0 01-1.984-2.122c0-1.096.888-1.983 1.983-1.984h33.721a2.02 2.02 0 011.986 2.055c.002.022.001.044 0 .068zm-2.493-9.918a1.818 1.818 0 011.985 1.844 1.985 1.985 0 01-1.984 1.983H81.869a2.018 2.018 0 01-1.983-2.123 1.793 1.793 0 011.983-1.704h32.706zm-.484-27.84a1.984 1.984 0 11.003 3.967 1.984 1.984 0 01-.003-3.967zm-3.967-59.508a1.984 1.984 0 110 3.968 1.984 1.984 0 010-3.968zm3.967 41.656h-13.885v-19.836h13.885v19.836zm21.821-1.984a1.984 1.984 0 110-3.967 1.984 1.984 0 010 3.967z"/>
  <path fill="#FFF" d="M117.353 201.279a33.883 33.883 0 00-1.853 3.874l3.688 1.462a29.677 29.677 0 011.638-3.417l-3.473-1.919zM121.816 194.292a123.17 123.17 0 00-2.302 3.409l3.33 2.154a121.916 121.916 0 012.229-3.296l-3.257-2.267zM126.328 187.691a91.331 91.331 0 01-2.196 3.288l3.259 2.263a92.165 92.165 0 002.295-3.438l-3.358-2.113zM130.05 180.778a88.933 88.933 0 01-1.784 3.528l3.499 1.871a88.455 88.455 0 001.864-3.69l-3.579-1.709zM133.15 173.499a91.876 91.876 0 01-1.472 3.673l3.651 1.554a97.105 97.105 0 001.534-3.832l-3.713-1.395zM141.86 150.543l-3.968.031.003.365a41.76 41.76 0 01-.154 3.49l3.953.333c.112-1.319.167-2.605.167-3.824l-.001-.395zM140.851 142.101l-3.862.902c.289 1.24.51 2.496.66 3.76l3.94-.468a38.45 38.45 0 00-.738-4.194zM137.999 134.084l-3.566 1.736a34.338 34.338 0 011.479 3.521l3.737-1.329a38.14 38.14 0 00-1.65-3.928zM133.462 126.901l-3.107 2.468c.794 1 1.534 2.041 2.218 3.119l3.354-2.119a40.3 40.3 0 00-2.465-3.468zM127.517 120.848l-2.528 3.057a37.7 37.7 0 012.828 2.594l2.827-2.782a41.807 41.807 0 00-3.127-2.869zM120.499 116.12l-1.887 3.491a39.64 39.64 0 013.295 1.992l2.214-3.293a43.748 43.748 0 00-3.622-2.19zM112.723 112.829l-1.201 3.782c1.235.391 2.452.841 3.615 1.334l1.552-3.649a44.661 44.661 0 00-3.966-1.467zM104.491 111.008l-.508 3.937c1.279.165 2.56.388 3.805.665l.858-3.875a47.63 47.63 0 00-4.155-.727zM42.682 217.651h3.967v3.968h-3.967zM42.682 225.586h3.967v3.968h-3.967zM46.65 221.619h3.967v3.967H46.65zM38.715 221.619h3.967v3.967h-3.967zM151.781 110.537h3.968v3.967h-3.968zM151.781 118.471h3.968v3.967h-3.968zM155.748 114.504h3.967v3.967h-3.967zM147.814 114.504h3.967v3.967h-3.967z"/>
  <path fill="#FFF" d="M99.218 262.541c-51.015 0-92.519-41.504-92.519-92.519s41.504-92.519 92.519-92.519 92.519 41.504 92.519 92.519-41.504 92.519-92.519 92.519zm0-181.038c-48.81 0-88.519 39.709-88.519 88.519s39.709 88.519 88.519 88.519 88.519-39.709 88.519-88.519-39.709-88.519-88.519-88.519z"/>
</svg>
