<svg xmlns="http://www.w3.org/2000/svg" width="198.43" height="340.16"><g fill="#FFF"><path d="M142.758 198.189c.634-3.354.617-6.8-.046-10.147l9.113-21.996a.308.308 0 000-.043 37.37 37.37 0 016.397-11.108 2.958 2.958 0 00.733-2.716l-3.736-16.139a1.916 1.916 0 00-.199-.482c-.016-.03-.021-.065-.037-.094-.016-.026-.087-.095-.126-.146a2.1 2.1 0 00-.28-.329 1.907 1.907 0 00-.218-.131 2.065 2.065 0 00-.309-.187 1.95 1.95 0 00-.465-.113c-.045 0-.086-.03-.131-.034a1.994 1.994 0 00-1.097.246c-.03.016-.066.021-.096.04h-.021l-14.053 8.77a2.97 2.97 0 00-1.404 2.447 37.339 37.339 0 01-3.346 12.403v.021l-4.555 11.011a26.75 26.75 0 00-7.109-2.568 107.426 107.426 0 001.031-19.566 21.714 21.714 0 004.939-15.943c-1.245-11.598-11.725-19.974-12.172-20.326a1.989 1.989 0 00-3.153 2.076c1.024 3.849.138 7.911-7.433 16.262a11.647 11.647 0 00-2.728 12.691 15.435 15.435 0 002.834 4.576c-.483 3.075-.86 5.986-1.121 8.822a99.528 99.528 0 00-.346 14.112 27.08 27.08 0 00-4.956 3.453l-9.653-41.272c0-.041-.04-.072-.051-.109a1.923 1.923 0 00-.139-.385l-9.859-18.207a4.594 4.594 0 00-8.632 2.022l-.749 20.686c0 .149.017.298.049.444v.09l9.846 42.022a22.23 22.23 0 00-4.601.687l-10.832-26.158a4.02 4.02 0 00-5.193-2.127L42.3 157.598a3.993 3.993 0 00-2.156 5.199l14.69 35.437c-8.608.453-15.292 7.68-15.07 16.298.222 8.618 7.269 15.493 15.889 15.5h87.56a15.92 15.92 0 0013.44-24.08 15.895 15.895 0 00-13.895-7.763zm-2.026-51.508l8.341-5.205-2.953 7.131a1.991 1.991 0 003.678 1.524l2.953-7.132 2.211 9.578a39.355 39.355 0 00-5.772 9.526 8.178 8.178 0 01-11.122-4.599 39.395 39.395 0 002.664-10.823zm-4.578 15.624a12.135 12.135 0 004.961 3.612 12.66 12.66 0 004.87 1.026c.403-.002.807-.026 1.207-.074l-6.351 15.322a27.023 27.023 0 00-8.546-10.564l3.859-9.322zm-27.263-14.213l9.999.61a90.12 90.12 0 01-.023 5.734c-3.33.238-6.678.076-9.97-.481-.251-.037-.496-.064-.744-.097.199-1.875.442-3.773.735-5.765h.003v-.001zm-.948-16.026c5.282-5.829 8.021-10.313 8.659-14.526a26.621 26.621 0 017.182 14.264 17.845 17.845 0 01-4.027 12.958c-3.932-.238-7.819-.477-11.663-.716a8.3 8.3 0 01-.154-11.979h.003v-.001zm-.152 25.757l.577.075c2.563.398 5.152.617 7.748.659.822 0 1.69-.065 2.559-.133-.18 2.56-.478 5.236-.853 8-.492-.026-.974-.075-1.468-.075a26.664 26.664 0 00-8.819 1.519 96.185 96.185 0 01.252-10.045h.004zM92.4 181.093l-5.694-24.251a1.99 1.99 0 00-3.873.907l5.117 21.827a22.597 22.597 0 00-4.339-1.08l-8.734-37.272a9.44 9.44 0 003.896.848c.125 0 .258-.018.385-.024l1.407 6.008a1.992 1.992 0 003.316 1.025 1.993 1.993 0 00.559-1.931l-1.409-6.011a9.423 9.423 0 003.477-2.647l8.878 37.967a26.535 26.535 0 00-2.986 4.634zm-12.159-43.181a6.606 6.606 0 01-6.645-2.661l.252-7.009c.693.129 1.395.196 2.1.199a8.813 8.813 0 002.021-.225 10.134 10.134 0 003.69-1.834l3.351 6.184a6.602 6.602 0 01-4.77 5.35v-.004h.001zm-5.452-23.248a.622.622 0 01.685.307l4.266 7.891a6.778 6.778 0 01-2.687 1.491 6.762 6.762 0 01-3.066-.144l.325-8.967a.618.618 0 01.477-.578zm-14.402 39.747l1.521 3.674-7.363 3.047a1.991 1.991 0 00.765 3.825c.262 0 .52-.052.763-.152l7.362-3.051 1.522 3.677-3.684 1.527a1.988 1.988 0 00-1.19 2.228 1.993 1.993 0 002.715 1.449l3.683-1.526 1.523 3.677-7.37 3.055a1.992 1.992 0 001.525 3.68l7.363-3.049 1.61 3.886a23.109 23.109 0 00-12.886 15.684l-14.423-34.777 16.564-6.854zm82.834 71.639h-87.56c-6.593 0-11.939-5.346-11.939-11.939s5.346-11.939 11.939-11.939a11.718 11.718 0 013.405.493 1.997 1.997 0 001.747-.296c.504-.368.806-.95.818-1.571a18.903 18.903 0 0130.247-14.743 1.997 1.997 0 001.749.311 1.986 1.986 0 001.301-1.209c3.888-10.361 14.634-16.456 25.522-14.475 10.888 1.981 18.8 11.468 18.788 22.535a22.652 22.652 0 01-1.004 6.715 1.988 1.988 0 002.329 2.531 12.49 12.49 0 012.656-.29c6.594 0 11.939 5.346 11.939 11.939.003 6.591-5.343 11.938-11.937 11.938z"/><path d="M116.724 141.874a1.995 1.995 0 001.592-.787 14.928 14.928 0 002.646-11.718 1.988 1.988 0 10-3.844 1.026 11.052 11.052 0 01-1.975 8.291 1.99 1.99 0 001.591 3.184l-.01.004zM114.107 202.171a9.793 9.793 0 00-4.268.993 11.94 11.94 0 00-20.626 11.722 1.992 1.992 0 003.678-.037 1.99 1.99 0 00-.016-1.523 8.092 8.092 0 01-.656-3.196 7.96 7.96 0 017.961-7.96 7.875 7.875 0 017.191 4.579c.044.063.091.127.14.187.031.068.066.135.106.199.035.044.085.063.126.104.095.099.197.185.309.26.1.075.207.142.318.198.115.049.236.085.358.111.121.032.249.052.374.059.259-.002.516-.045.761-.127.052-.012.105-.023.157-.039.063-.041.128-.088.185-.138.071-.032.143-.067.209-.106a5.868 5.868 0 013.693-1.307 5.976 5.976 0 015.415 3.473 1.99 1.99 0 103.62-1.653 9.946 9.946 0 00-9.035-5.799zM74.933 188.341c-.301.099-7.331 2.529-7.331 9.848 0 1.102.892 1.99 1.99 1.99 1.1 0 1.99-.889 1.99-1.99a6.84 6.84 0 014.62-6.074 1.994 1.994 0 10-1.27-3.782v.008h.001zM102.938 186.188a1.988 1.988 0 002.412-1.445 8.483 8.483 0 018.029-6.452 1.99 1.99 0 10-.008-3.98 12.392 12.392 0 00-11.881 9.466 1.987 1.987 0 001.448 2.411z"/></g><path fill="#FFF" d="M99.465 81.697c11.967 0 23.573 2.342 34.499 6.964 10.553 4.464 20.032 10.854 28.174 18.997 8.142 8.142 14.533 17.622 18.996 28.175 4.621 10.924 6.964 22.531 6.964 34.499 0 11.968-2.343 23.573-6.964 34.5-4.463 10.553-10.854 20.032-18.996 28.173-8.143 8.142-17.621 14.533-28.174 18.996-10.926 4.621-22.53 6.964-34.499 6.964-11.968 0-23.574-2.343-34.499-6.964-10.554-4.463-20.034-10.854-28.174-18.996-8.141-8.143-14.533-17.62-18.997-28.173-4.621-10.927-6.963-22.532-6.963-34.5 0-11.967 2.342-23.574 6.964-34.499 4.464-10.554 10.855-20.034 18.997-28.174s17.622-14.533 28.175-18.997c10.923-4.623 22.53-6.965 34.497-6.965m0-4.45c-51.408 0-93.083 41.675-93.083 93.083 0 51.407 41.675 93.083 93.083 93.083s93.083-41.676 93.083-93.083c0-51.408-41.675-93.083-93.083-93.083z"/></svg>