<svg xmlns="http://www.w3.org/2000/svg" width="198.43" height="340.16">
  <g fill="#FFF">
    <path d="M155.63 115.464H42.422a8.42 8.42 0 00-8.708 8.708v91.44a8.425 8.425 0 008.708 8.708H155.63a8.424 8.424 0 008.711-8.708v-91.44a8.423 8.423 0 00-8.711-8.708zm4.357 73.046v5.442c-13.895 1.083-24.932 12.121-26.017 26.015h-5.443c1.114-16.89 14.566-30.346 31.46-31.457zm-4.357 31.457h-17.306c1.063-11.492 10.169-20.597 21.662-21.659v17.306a4.094 4.094 0 01-1.186 3.17 4.072 4.072 0 01-3.17 1.183zm4.357-35.812a37.653 37.653 0 00-7.51 1.186l-1.693-5.226-4.138 1.341 1.695 5.224a37.917 37.917 0 00-6.751 3.452l-3.232-4.455-3.527 2.553 3.221 4.444a38.024 38.024 0 00-5.358 5.361l-4.443-3.221-2.553 3.525 4.463 3.227a38.176 38.176 0 00-3.449 6.748l-5.224-1.694-1.343 4.136 5.226 1.695a37.835 37.835 0 00-1.196 7.515H42.422a4.069 4.069 0 01-3.169-1.185 4.072 4.072 0 01-1.183-3.168v-78.378h121.917v46.92zM38.068 132.881v-8.708a4.076 4.076 0 014.353-4.355h113.208a4.082 4.082 0 014.356 4.355v8.708H38.068z"/>
    <path d="M151.278 123.558h4.352v4.354h-4.352v-4.354zM42.422 123.558h4.355v4.354h-4.355v-4.354zM51.131 123.558h4.355v4.354h-4.355v-4.354zM59.839 123.558h4.355v4.354h-4.355v-4.354zM56.21 184.519h7.258c5.005.188 9.22-3.705 9.433-8.71v-4.354c-.213-5.003-4.428-8.893-9.433-8.707H56.21a4.762 4.762 0 01-5.079-4.354v-4.354a4.76 4.76 0 015.079-4.354h7.258a4.765 4.765 0 015.08 4.354v2.177h4.354v-2.177a9.102 9.102 0 00-9.433-8.708H56.21a9.102 9.102 0 00-9.434 8.708v4.354c.213 5.003 4.429 8.894 9.434 8.708h7.258a4.766 4.766 0 015.08 4.354v4.355a4.763 4.763 0 01-5.08 4.354H56.21a4.762 4.762 0 01-5.079-4.354v-2.178h-4.354v2.178c.213 5.002 4.429 8.896 9.433 8.708zM85.239 184.519h13.789v-4.354H85.239a4.045 4.045 0 01-3.628-4.355v-8.708h17.417v-4.353H81.61v-8.708a4.046 4.046 0 013.628-4.354h13.789v-4.354H85.239a8.375 8.375 0 00-7.981 8.708v21.773a8.373 8.373 0 007.981 8.705zM112.815 184.519h7.257c5.004.188 9.221-3.705 9.435-8.71v-21.771c-.214-5.004-4.431-8.894-9.435-8.708h-7.257c-5.005-.187-9.223 3.704-9.436 8.708v21.773c.215 5.002 4.431 8.896 9.436 8.708zm-5.082-30.48a4.767 4.767 0 015.082-4.355h7.257a4.765 4.765 0 015.08 4.355v21.772a4.762 4.762 0 01-5.08 4.354h-7.257a4.765 4.765 0 01-5.082-4.354v-21.772z"/>
    <path d="M99.215 81.929c11.901 0 23.446 2.331 34.313 6.926 10.494 4.44 19.922 10.796 28.019 18.893 8.098 8.097 14.455 17.525 18.894 28.022 4.597 10.865 6.926 22.408 6.926 34.311 0 11.9-2.329 23.446-6.926 34.313-4.438 10.494-10.796 19.924-18.893 28.021-8.098 8.096-17.524 14.454-28.02 18.894-10.867 4.596-22.411 6.924-34.313 6.924-11.902 0-23.447-2.328-34.312-6.924-10.496-4.439-19.923-10.798-28.021-18.894-8.097-8.098-14.454-17.526-18.893-28.021-4.595-10.866-6.926-22.411-6.926-34.313 0-11.902 2.331-23.446 6.926-34.311 4.44-10.497 10.796-19.924 18.893-28.021 8.097-8.098 17.525-14.454 28.021-18.894 10.865-4.595 22.41-6.926 34.312-6.926m0-4.368c-51.097 0-92.519 41.422-92.519 92.519 0 51.098 41.422 92.519 92.519 92.519 51.096 0 92.519-41.421 92.519-92.519 0-51.097-41.423-92.519-92.519-92.519z"/>
  </g>
</svg>
