<svg xmlns="http://www.w3.org/2000/svg" width="198.43" height="340.16">
  <path fill="#FFF" d="M96.719 158.079a2.761 2.761 0 00-3.029.599l-5.558 5.559a2.782 2.782 0 000 3.929 2.782 2.782 0 003.929 0l.812-.812v9.963a2.78 2.78 0 002.779 2.779 2.787 2.787 0 002.784-2.779v-16.671a2.776 2.776 0 00-1.717-2.567zM113.391 158.079a2.763 2.763 0 00-3.029.599l-5.56 5.559a2.787 2.787 0 000 3.929 2.785 2.785 0 003.932 0l.812-.812v9.963a2.78 2.78 0 005.562 0v-16.671a2.772 2.772 0 00-1.717-2.567zM130.063 158.079a2.76 2.76 0 00-3.028.599l-5.559 5.559a2.785 2.785 0 000 3.929 2.783 2.783 0 003.93 0l.812-.812v9.963a2.78 2.78 0 002.778 2.779 2.788 2.788 0 002.786-2.779v-16.671a2.776 2.776 0 00-1.719-2.567zM78.979 157.866H67.864a2.78 2.78 0 00-2.778 2.78v16.673a2.78 2.78 0 002.778 2.778h11.115a2.78 2.78 0 002.779-2.778v-16.673a2.782 2.782 0 00-2.779-2.78zM76.2 174.539h-5.556v-11.114H76.2v11.114zM113.391 191.426a2.77 2.77 0 00-3.029.599l-5.56 5.559a2.79 2.79 0 000 3.931 2.79 2.79 0 003.932 0l.812-.812v9.964a2.781 2.781 0 002.778 2.78 2.788 2.788 0 002.784-2.78v-16.674a2.773 2.773 0 00-1.717-2.567zM130.063 191.426a2.768 2.768 0 00-3.028.599l-5.559 5.559a2.788 2.788 0 000 3.931 2.787 2.787 0 003.93 0l.812-.812v9.964a2.781 2.781 0 005.564 0v-16.674a2.777 2.777 0 00-1.719-2.567zM74.489 191.426a2.77 2.77 0 00-3.03.599l-5.556 5.559a2.782 2.782 0 000 3.931 2.785 2.785 0 003.929 0l.812-.812v9.964a2.78 2.78 0 002.778 2.78 2.79 2.79 0 002.785-2.78v-16.674a2.78 2.78 0 00-1.718-2.567zM95.651 191.212H84.537a2.778 2.778 0 00-2.778 2.778v16.676a2.78 2.78 0 002.778 2.778h11.116a2.781 2.781 0 002.779-2.778V193.99a2.782 2.782 0 00-2.781-2.778zm-2.779 16.673h-5.557v-11.113h5.557v11.113z"/>
  <path fill="#FFF" d="M145.669 102.292H84.537c-.371 0-.74.078-1.079.216-.104.044-.182.126-.277.188-.21.124-.434.233-.612.407l-33.345 33.345c-.127.128-.2.3-.3.451-.099.15-.228.278-.294.446-.138.338-.217.7-.217 1.071v94.479a2.78 2.78 0 002.779 2.778h94.478a2.78 2.78 0 002.779-2.778V105.07a2.781 2.781 0 00-2.78-2.778zm-63.911 9.488v23.858H57.901l23.857-23.858zm61.132 118.335H53.97v-88.92h30.567a2.78 2.78 0 002.779-2.78v-30.566h55.575l-.001 122.266z"/>
  <path fill="#FFF" d="M99.215 82.265c48.421 0 87.814 39.394 87.814 87.816 0 48.42-39.394 87.814-87.814 87.814S11.401 218.5 11.401 170.081c0-48.422 39.393-87.816 87.814-87.816m0-4.704c-51.096 0-92.519 41.423-92.519 92.521 0 51.096 41.422 92.519 92.519 92.519 51.097 0 92.519-41.423 92.519-92.519 0-51.099-41.422-92.521-92.519-92.521z"/>
</svg>
