<svg xmlns="http://www.w3.org/2000/svg" width="198.43" height="340.16">
  <path fill="#FFF" d="M145.398 106.205H53.032a2.64 2.64 0 00-2.639 2.639v124.031a2.64 2.64 0 002.639 2.64h55.418c.177 0 .352-.019.523-.054.106-.021.205-.059.306-.091.062-.022.127-.033.187-.059.107-.046.206-.106.309-.165.048-.027.099-.049.146-.08.124-.083.237-.178.344-.282.016-.015.036-.027.054-.044l36.943-36.946c.018-.015.029-.034.045-.053.101-.106.198-.22.284-.344.03-.046.049-.097.076-.145.06-.099.121-.201.167-.31.021-.059.036-.122.058-.183.033-.103.071-.203.094-.309a2.77 2.77 0 00.054-.523v-87.085a2.645 2.645 0 00-2.642-2.637zM111.09 226.504v-27.936h27.937l-27.937 27.936zm31.667-33.213H108.45a2.64 2.64 0 00-2.64 2.638v34.309H55.672V111.483h87.085v81.808z"/>
  <path fill="#FFF" d="M68.867 132.595h60.696v5.278H68.867zM68.867 153.707h60.696v5.278H68.867zM68.867 174.819h60.696v5.277H68.867z"/>
  <path fill="#FFF" d="M99.215 82.243c48.434 0 87.836 39.404 87.836 87.837s-39.402 87.836-87.836 87.836c-48.433 0-87.836-39.403-87.836-87.836s39.403-87.837 87.836-87.837m0-4.682c-51.096 0-92.519 41.422-92.519 92.52S48.118 262.6 99.215 262.6c51.099 0 92.519-41.421 92.519-92.519 0-51.098-41.42-92.52-92.519-92.52z"/>
</svg>
