<?xml version="1.0" encoding="utf-8"?>
<!-- Generator: Adobe Illustrator 16.0.0, SVG Export Plug-In . SVG Version: 6.00 Build 0)  -->
<!DOCTYPE svg PUBLIC "-//W3C//DTD SVG 1.1//EN" "http://www.w3.org/Graphics/SVG/1.1/DTD/svg11.dtd">
<svg version="1.1" id="Layer_1" xmlns="http://www.w3.org/2000/svg" xmlns:xlink="http://www.w3.org/1999/xlink" x="0px" y="0px"
	 width="234.708px" height="209.667px" viewBox="0 0 234.708 209.667" enable-background="new 0 0 234.708 209.667"
	 xml:space="preserve">
<g id="Layer_2" display="none">
	<rect display="inline" fill="#243547" width="841.889" height="595.281"/>
</g>
<g id="Layer_1_1_">
	<path display="none" fill="#FFFFFF" d="M213.565,377.523v-38.145h32.212c2.959,0,5.091,0.572,6.394,1.715
		c1.304,1.143,1.957,3.031,1.957,5.668v8.525c0,2.578-0.652,4.438-1.957,5.582c-1.303,1.143-3.435,1.713-6.394,1.713h-25.005v14.941
		H213.565L213.565,377.523z M242.525,344.96h-21.753v12.041h21.753c1.61,0,2.731-0.27,3.362-0.813
		c0.63-0.541,0.945-1.473,0.945-2.789v-4.834c0-1.318-0.309-2.248-0.924-2.791S244.167,344.96,242.525,344.96z M263.42,377.523
		v-38.145h38.408v5.67h-31.201v9.799h18.81v5.67h-18.81v11.426h31.554v5.58H263.42L263.42,377.523z M311.036,377.523v-38.145h30.674
		c2.842,0,4.886,0.58,6.131,1.736c1.244,1.158,1.867,3.039,1.867,5.645v8.525c0,2.578-0.623,4.439-1.867,5.582
		c-1.246,1.143-3.289,1.713-6.131,1.713h-5.053l16.83,14.941h-9.623l-15.205-14.941h-10.416v14.941h-7.207V377.523z M338.545,344.96
		h-20.303v12.305h20.303c1.611,0,2.695-0.264,3.252-0.791c0.557-0.525,0.836-1.553,0.836-3.074v-4.57
		c0-1.406-0.293-2.402-0.879-2.988C341.167,345.253,340.099,344.96,338.545,344.96z M395.168,345.048h-26.762v9.887h24.477
		c3.574,0,6.014,0.623,7.318,1.867c1.303,1.246,1.955,3.627,1.955,7.145v4.568c0,3.518-0.637,5.896-1.912,7.143
		c-1.273,1.246-3.729,1.867-7.361,1.867h-23.202c-3.634,0-6.103-0.621-7.405-1.867c-1.304-1.244-1.956-3.625-1.956-7.143v-1.055
		l6.593-1.363v5.67h28.783v-10.723h-24.564c-3.604,0-6.051-0.623-7.34-1.869c-1.289-1.244-1.934-3.625-1.934-7.141v-3.604
		c0-3.486,0.645-5.867,1.934-7.141c1.289-1.275,3.735-1.912,7.34-1.912h21.226c3.544,0,5.991,0.615,7.339,1.846
		s2.021,3.398,2.021,6.504v0.924l-6.549,1.406V345.048z M414.174,377.523v-38.145h32.213c2.959,0,5.09,0.572,6.396,1.715
		c1.303,1.143,1.955,3.031,1.955,5.668v8.525c0,2.578-0.652,4.438-1.955,5.582c-1.307,1.143-3.438,1.713-6.396,1.713h-25.006v14.941
		H414.174L414.174,377.523z M443.137,344.96h-21.754v12.041h21.754c1.611,0,2.73-0.27,3.361-0.813
		c0.629-0.541,0.945-1.473,0.945-2.789v-4.834c0-1.318-0.311-2.248-0.926-2.791C445.905,345.232,444.778,344.96,443.137,344.96z
		 M464.032,377.523v-38.145h38.406v5.67h-31.199v9.799h18.809v5.67h-18.809v11.426h31.553v5.58H464.032L464.032,377.523z
		 M544.563,345.048h-26.631v26.719h26.631v-9.098l7.207,1.363v4.482c0,3.486-0.652,5.859-1.955,7.119
		c-1.305,1.26-3.773,1.889-7.406,1.889h-22.412c-3.633,0-6.086-0.607-7.359-1.824c-1.273-1.215-1.912-3.609-1.912-7.184v-20.084
		c0-3.545,0.646-5.939,1.936-7.186c1.289-1.244,3.732-1.867,7.338-1.867h22.412c3.633,0,6.102,0.637,7.404,1.912
		c1.305,1.273,1.955,3.654,1.955,7.141v3.604l-7.207,1.188V345.048L544.563,345.048z M580.752,345.048v32.477h-7.164v-32.477
		h-18.018v-5.67h43.285v5.67H580.752z M604.987,377.523v-38.145h30.674c2.842,0,4.885,0.58,6.131,1.736
		c1.244,1.158,1.867,3.039,1.867,5.645v8.525c0,2.578-0.623,4.439-1.867,5.582c-1.246,1.143-3.289,1.713-6.131,1.713h-5.053
		l16.828,14.941h-9.621L622.61,362.58h-10.416v14.941h-7.207V377.523z M632.497,344.96h-20.303v12.305h20.303
		c1.609,0,2.693-0.264,3.252-0.791c0.557-0.525,0.836-1.553,0.836-3.074v-4.57c0-1.406-0.293-2.402-0.879-2.988
		S634.049,344.96,632.497,344.96z M662.667,339.378v32.389h27.861v-32.389h7.295v29.137c0,3.518-0.652,5.896-1.957,7.143
		s-3.771,1.867-7.404,1.867h-23.643c-3.635,0-6.104-0.631-7.404-1.891c-1.305-1.26-1.955-3.633-1.955-7.119v-29.137H662.667z
		 M716.563,346.455c0,0.557,0.029,1.318,0.09,2.285c0.059,1.582,0.088,2.592,0.088,3.031v25.752h-5.934v-38.145h5.934l18.982,24.742
		l17.447-24.742h6.68v38.145h-6.68v-25.752c0-0.938,0.035-1.846,0.109-2.725c0.072-0.879,0.184-1.729,0.33-2.549
		c-0.41,1.201-0.836,2.264-1.275,3.186c-0.439,0.924-0.85,1.619-1.229,2.088l-14.68,19.732h-1.889l-15.205-19.557
		c-0.527-0.676-1.025-1.465-1.494-2.373S716.946,347.626,716.563,346.455z"/>
	<g>
		<polygon fill="#FFFFFF" points="164.821,57.968 78.589,207.289 32.59,127.546 50.037,127.546 78.589,177.078 156.098,42.828 		"/>
		<polygon fill="#FFFFFF" points="78.589,166.983 156.098,32.732 184.648,82.193 202.101,82.193 156.098,2.523 69.865,151.843 		"/>
		<polygon fill="#FFFFFF" points="101.374,87.241 8.725,87.241 0,102.383 92.648,102.383 		"/>
		<polygon fill="#FFFFFF" points="80.969,122.569 89.693,107.429 0,107.429 59.122,209.813 74.264,209.813 23.866,122.569 		"/>
		<polygon fill="#FFFFFF" points="153.719,87.241 144.995,102.383 234.687,102.383 175.565,0 160.495,0 210.821,87.241 		"/>
		<polygon fill="#FFFFFF" points="133.385,122.569 225.963,122.569 234.687,107.429 142.111,107.429 		"/>
	</g>
	
		<text transform="matrix(1 0 0 1 212.4321 377.9995)" display="none" fill="none" stroke="#EE2A7B" stroke-miterlimit="10" enable-background="new    " font-family="'BankGothicBT-Medium'" font-size="84" letter-spacing="-3">perspectrum</text>
</g>
</svg>
