<?xml version="1.0" encoding="utf-8"?>
<!-- Generator: Adobe Illustrator 16.0.0, SVG Export Plug-In . SVG Version: 6.00 Build 0)  -->
<!DOCTYPE svg PUBLIC "-//W3C//DTD SVG 1.1//EN" "http://www.w3.org/Graphics/SVG/1.1/DTD/svg11.dtd">
<svg version="1.1" xmlns="http://www.w3.org/2000/svg" xmlns:xlink="http://www.w3.org/1999/xlink" x="0px" y="0px"
	 width="234.708px" height="209.667px" viewBox="0 0 234.708 209.667" enable-background="new 0 0 234.708 209.667"
	 xml:space="preserve">
<g id="Layer_2" display="none">
	<rect display="inline" fill="#243547" width="841.89" height="595.28"/>
</g>
<g id="Layer_1">
	<path display="none" fill="#FFFFFF" d="M213.565,377.523v-38.145h32.212c2.959,0,5.09,0.572,6.394,1.715
		c1.303,1.143,1.956,3.031,1.956,5.668v8.525c0,2.578-0.652,4.439-1.956,5.582c-1.304,1.143-3.435,1.713-6.394,1.713h-25.005v14.941
		H213.565z M242.525,344.961h-21.753v12.041h21.753c1.611,0,2.731-0.271,3.362-0.814c0.63-0.541,0.945-1.471,0.945-2.789v-4.834
		c0-1.318-0.308-2.248-0.923-2.791C245.293,345.232,244.166,344.961,242.525,344.961z M263.421,377.523v-38.145h38.408v5.67h-31.201
		v9.799h18.809v5.67h-18.809v11.426h31.553v5.58H263.421z M311.036,377.523v-38.145h30.674c2.841,0,4.885,0.58,6.13,1.736
		c1.245,1.158,1.868,3.039,1.868,5.646v8.525c0,2.578-0.623,4.439-1.868,5.582c-1.246,1.143-3.289,1.713-6.13,1.713h-5.054
		l16.831,14.941h-9.624l-15.205-14.941h-10.415v14.941H311.036z M338.546,344.961h-20.303v12.305h20.303
		c1.611,0,2.695-0.264,3.252-0.791c0.556-0.527,0.835-1.553,0.835-3.076v-4.57c0-1.406-0.293-2.402-0.879-2.988
		C341.167,345.254,340.099,344.961,338.546,344.961z M395.169,345.049h-26.763v9.887h24.478c3.574,0,6.013,0.623,7.317,1.867
		c1.303,1.246,1.956,3.627,1.956,7.143v4.57c0,3.516-0.637,5.896-1.912,7.141c-1.274,1.246-3.729,1.867-7.361,1.867h-23.203
		c-3.633,0-6.102-0.621-7.405-1.867c-1.304-1.244-1.956-3.625-1.956-7.141v-1.055l6.592-1.363v5.67h28.784v-10.723h-24.565
		c-3.604,0-6.05-0.623-7.339-1.869c-1.29-1.244-1.934-3.625-1.934-7.141v-3.604c0-3.486,0.644-5.867,1.934-7.141
		c1.289-1.275,3.735-1.912,7.339-1.912h21.226c3.544,0,5.991,0.615,7.339,1.846c1.347,1.23,2.021,3.398,2.021,6.504v0.924
		l-6.548,1.406V345.049z M414.175,377.523v-38.145h32.213c2.959,0,5.09,0.572,6.395,1.715c1.303,1.143,1.955,3.031,1.955,5.668
		v8.525c0,2.578-0.652,4.439-1.955,5.582c-1.305,1.143-3.436,1.713-6.395,1.713h-25.006v14.941H414.175z M443.137,344.961h-21.754
		v12.041h21.754c1.611,0,2.73-0.271,3.361-0.814c0.629-0.541,0.945-1.471,0.945-2.789v-4.834c0-1.318-0.309-2.248-0.924-2.791
		C445.904,345.232,444.777,344.961,443.137,344.961z M464.031,377.523v-38.145h38.408v5.67h-31.201v9.799h18.809v5.67h-18.809
		v11.426h31.553v5.58H464.031z M544.563,345.049h-26.631v26.719h26.631v-9.098l7.207,1.363v4.482c0,3.486-0.652,5.859-1.955,7.119
		c-1.305,1.26-3.773,1.889-7.406,1.889h-22.412c-3.633,0-6.086-0.607-7.359-1.824c-1.275-1.215-1.912-3.609-1.912-7.184v-20.084
		c0-3.545,0.645-5.939,1.934-7.186c1.289-1.244,3.734-1.867,7.338-1.867h22.412c3.633,0,6.102,0.637,7.406,1.912
		c1.303,1.273,1.955,3.654,1.955,7.141v3.604l-7.207,1.188V345.049z M580.752,345.049v32.475h-7.164v-32.475H555.57v-5.67h43.287
		v5.67H580.752z M604.986,377.523v-38.145h30.674c2.842,0,4.885,0.58,6.131,1.736c1.244,1.158,1.867,3.039,1.867,5.646v8.525
		c0,2.578-0.623,4.439-1.867,5.582c-1.246,1.143-3.289,1.713-6.131,1.713h-5.053l16.83,14.941h-9.623l-15.205-14.941h-10.416v14.941
		H604.986z M632.496,344.961h-20.303v12.305h20.303c1.611,0,2.695-0.264,3.252-0.791s0.836-1.553,0.836-3.076v-4.57
		c0-1.406-0.293-2.402-0.879-2.988S634.049,344.961,632.496,344.961z M662.666,339.379v32.389h27.861v-32.389h7.295v29.137
		c0,3.516-0.652,5.896-1.957,7.141c-1.303,1.246-3.771,1.867-7.404,1.867h-23.643c-3.633,0-6.102-0.629-7.404-1.889
		c-1.305-1.26-1.955-3.633-1.955-7.119v-29.137H662.666z M716.564,346.455c0,0.557,0.029,1.318,0.088,2.285
		c0.059,1.582,0.088,2.592,0.088,3.031v25.752h-5.932v-38.145h5.932l18.984,24.742l17.447-24.742h6.68v38.145h-6.68v-25.752
		c0-0.938,0.035-1.846,0.109-2.725c0.072-0.879,0.184-1.729,0.33-2.549c-0.41,1.201-0.836,2.264-1.275,3.186
		c-0.439,0.924-0.85,1.619-1.23,2.088l-14.678,19.732h-1.889l-15.205-19.557c-0.527-0.674-1.025-1.465-1.494-2.373
		S716.945,347.627,716.564,346.455z"/>
	<g>
		<linearGradient id="SVGID_1_" gradientUnits="userSpaceOnUse" x1="32.5898" y1="125.0581" x2="164.8213" y2="125.0581">
			<stop  offset="0" style="stop-color:#5A215E"/>
			<stop  offset="0" style="stop-color:#62215F"/>
			<stop  offset="0.0077" style="stop-color:#652160"/>
			<stop  offset="0.0677" style="stop-color:#7C2263"/>
			<stop  offset="0.1354" style="stop-color:#922266"/>
			<stop  offset="0.2122" style="stop-color:#A42169"/>
			<stop  offset="0.3018" style="stop-color:#B3216A"/>
			<stop  offset="0.4127" style="stop-color:#BE206C"/>
			<stop  offset="0.5682" style="stop-color:#C4206D"/>
			<stop  offset="1" style="stop-color:#C6206D"/>
		</linearGradient>
		<polygon fill="url(#SVGID_1_)" points="164.821,57.968 78.589,207.288 32.59,127.546 50.037,127.546 78.589,177.077 
			156.098,42.828 		"/>
		<linearGradient id="SVGID_2_" gradientUnits="userSpaceOnUse" x1="69.8652" y1="84.7534" x2="202.1006" y2="84.7534">
			<stop  offset="0" style="stop-color:#5A215E"/>
			<stop  offset="0" style="stop-color:#62215F"/>
			<stop  offset="0.0077" style="stop-color:#652160"/>
			<stop  offset="0.0677" style="stop-color:#7C2263"/>
			<stop  offset="0.1354" style="stop-color:#922266"/>
			<stop  offset="0.2122" style="stop-color:#A42169"/>
			<stop  offset="0.3018" style="stop-color:#B3216A"/>
			<stop  offset="0.4127" style="stop-color:#BE206C"/>
			<stop  offset="0.5682" style="stop-color:#C4206D"/>
			<stop  offset="1" style="stop-color:#C6206D"/>
		</linearGradient>
		<polygon fill="url(#SVGID_2_)" points="78.589,166.983 156.098,32.732 184.648,82.193 202.101,82.193 156.098,2.523 
			69.865,151.843 		"/>
		<linearGradient id="SVGID_3_" gradientUnits="userSpaceOnUse" x1="0" y1="94.812" x2="101.374" y2="94.812">
			<stop  offset="0" style="stop-color:#C6206D"/>
			<stop  offset="0.4318" style="stop-color:#C4206D"/>
			<stop  offset="0.5873" style="stop-color:#BE206C"/>
			<stop  offset="0.6982" style="stop-color:#B3216A"/>
			<stop  offset="0.7878" style="stop-color:#A42169"/>
			<stop  offset="0.8646" style="stop-color:#922266"/>
			<stop  offset="0.9323" style="stop-color:#7C2263"/>
			<stop  offset="0.9923" style="stop-color:#652160"/>
			<stop  offset="1" style="stop-color:#62215F"/>
		</linearGradient>
		<polygon fill="url(#SVGID_3_)" points="101.374,87.241 8.725,87.241 0,102.383 92.648,102.383 		"/>
		<linearGradient id="SVGID_4_" gradientUnits="userSpaceOnUse" x1="0" y1="158.6211" x2="89.6934" y2="158.6211">
			<stop  offset="0" style="stop-color:#C6206D"/>
			<stop  offset="0.3194" style="stop-color:#C4206D"/>
			<stop  offset="0.4891" style="stop-color:#BC206C"/>
			<stop  offset="0.6235" style="stop-color:#B0216A"/>
			<stop  offset="0.7395" style="stop-color:#9F2268"/>
			<stop  offset="0.8436" style="stop-color:#8B2266"/>
			<stop  offset="0.9378" style="stop-color:#742162"/>
			<stop  offset="1" style="stop-color:#62215F"/>
			<stop  offset="1" style="stop-color:#5A215E"/>
		</linearGradient>
		<polygon fill="url(#SVGID_4_)" points="80.969,122.569 89.693,107.429 0,107.429 59.122,209.813 74.264,209.813 23.866,122.569 		
			"/>
		<linearGradient id="SVGID_5_" gradientUnits="userSpaceOnUse" x1="144.9941" y1="51.1914" x2="234.6865" y2="51.1914">
			<stop  offset="0" style="stop-color:#5A215E"/>
			<stop  offset="0" style="stop-color:#62215F"/>
			<stop  offset="0.0077" style="stop-color:#652160"/>
			<stop  offset="0.0677" style="stop-color:#7C2263"/>
			<stop  offset="0.1354" style="stop-color:#922266"/>
			<stop  offset="0.2122" style="stop-color:#A42169"/>
			<stop  offset="0.3018" style="stop-color:#B3216A"/>
			<stop  offset="0.4127" style="stop-color:#BE206C"/>
			<stop  offset="0.5682" style="stop-color:#C4206D"/>
			<stop  offset="1" style="stop-color:#C6206D"/>
		</linearGradient>
		<polygon fill="url(#SVGID_5_)" points="153.72,87.241 144.994,102.383 234.687,102.383 175.565,0 160.495,0 210.821,87.241 		"/>
		<linearGradient id="SVGID_6_" gradientUnits="userSpaceOnUse" x1="133.3857" y1="114.999" x2="234.6865" y2="114.999">
			<stop  offset="0" style="stop-color:#5A215E"/>
			<stop  offset="0" style="stop-color:#62215F"/>
			<stop  offset="0.0077" style="stop-color:#652160"/>
			<stop  offset="0.0677" style="stop-color:#7C2263"/>
			<stop  offset="0.1354" style="stop-color:#922266"/>
			<stop  offset="0.2122" style="stop-color:#A42169"/>
			<stop  offset="0.3018" style="stop-color:#B3216A"/>
			<stop  offset="0.4127" style="stop-color:#BE206C"/>
			<stop  offset="0.5682" style="stop-color:#C4206D"/>
			<stop  offset="1" style="stop-color:#C6206D"/>
		</linearGradient>
		<polygon fill="url(#SVGID_6_)" points="133.386,122.569 225.963,122.569 234.687,107.429 142.111,107.429 		"/>
	</g>
	
		<text transform="matrix(1 0 0 1 212.4316 378)" display="none" fill="#EE2A7B" stroke="#EE2A7B" stroke-miterlimit="10" font-family="'BankGothicBT-Medium'" font-size="84" letter-spacing="-4">perspectrum</text>
</g>
</svg>
